<svg width="146" height="46" viewBox="0 0 146 46" fill="none" xmlns="http://www.w3.org/2000/svg">
<path d="M80.9561 7.68156C81.8104 7.68156 82.5114 7.94442 83.059 8.47014C83.6066 8.97396 83.8804 9.63111 83.8804 10.4416C83.8804 11.2521 83.6066 11.9202 83.059 12.4459C82.5114 12.9716 81.8104 13.2345 80.9561 13.2345C80.1237 13.2345 79.4227 12.9716 78.8532 12.4459C78.3056 11.9202 78.0318 11.2521 78.0318 10.4416C78.0318 9.65302 78.3056 8.99587 78.8532 8.47014C79.4227 7.94442 80.1237 7.68156 80.9561 7.68156ZM78.5904 34.099V16.0274H83.289V34.099H78.5904Z" fill="white"/>
<path d="M99.3429 16.0274H104.042V33.869C104.042 36.5415 103.231 38.6772 101.61 40.2763C99.9891 41.8972 97.8205 42.7077 95.1043 42.7077C92.7604 42.7077 90.7233 42.1163 88.9928 40.9334C87.2842 39.7505 86.2656 38.031 85.937 35.7748H90.7999C91.2818 37.6148 92.6728 38.5348 94.9728 38.5348C97.8862 38.5348 99.3429 37.0234 99.3429 34.0005V31.4047C97.941 33.2886 96.0462 34.2305 93.6585 34.2305C91.2928 34.2305 89.3213 33.3543 87.7442 31.6019C86.1889 29.8495 85.4113 27.6261 85.4113 24.9318C85.4113 22.2375 86.1999 20.0141 87.777 18.2617C89.3542 16.5093 91.3147 15.6331 93.6585 15.6331C96.0681 15.6331 97.9629 16.5969 99.3429 18.5246V16.0274ZM94.71 29.7619C96.0462 29.7619 97.1524 29.3128 98.0286 28.4147C98.9048 27.5166 99.3429 26.3556 99.3429 24.9318C99.3429 23.5299 98.8938 22.3799 97.9957 21.4817C97.1195 20.5617 96.0243 20.1017 94.71 20.1017C93.3957 20.1017 92.3004 20.5617 91.4242 21.4817C90.5699 22.3799 90.1428 23.5299 90.1428 24.9318C90.1428 26.3337 90.5699 27.4947 91.4242 28.4147C92.3004 29.3128 93.3957 29.7619 94.71 29.7619Z" fill="white"/>
<path d="M66.7311 24.9504C65.0444 24.5999 63.6863 24.2494 62.6567 23.8989C61.6272 23.5485 60.6853 23.0994 59.831 22.5518C58.9767 22.0261 58.3743 21.3689 58.0238 20.5803C57.6514 19.7917 57.4652 18.8389 57.4652 17.7217C57.4652 16.4512 57.739 15.3231 58.2867 14.3374C58.8124 13.3736 59.5243 12.6288 60.4224 12.1031C61.2986 11.5774 62.2296 11.1831 63.2153 10.9202C64.1791 10.6573 65.1758 10.5259 66.2053 10.5259C69.3378 10.5259 71.7254 11.2597 73.3683 12.7274C74.9893 14.2169 75.9421 16.0788 76.2269 18.3132L71.4954 18.3132C71.1668 17.1303 70.6083 16.265 69.8197 15.7174C69.0092 15.1698 67.8154 14.896 66.2382 14.896C64.9239 14.896 63.9272 15.126 63.2482 15.586C62.5472 16.046 62.1967 16.6922 62.1967 17.5246C62.1967 18.0503 62.3939 18.4665 62.7882 18.7732C63.1605 19.1017 63.6206 19.3427 64.1682 19.496C64.7158 19.6494 65.6906 19.8794 67.0925 20.186C67.202 20.2079 67.2896 20.2189 67.3554 20.2189C67.3992 20.2408 67.4758 20.2627 67.5854 20.2846C67.673 20.3065 67.7606 20.3284 67.8482 20.3503C69.0311 20.5913 70.0278 20.8541 70.8383 21.1389C71.6487 21.4237 72.4483 21.818 73.2369 22.3218C74.0254 22.8256 74.6278 23.4718 75.044 24.2604C75.4383 25.049 75.6355 25.9909 75.6355 27.0861C75.6355 29.3642 74.7812 31.1386 73.0726 32.409C71.364 33.6795 69.3268 34.3148 66.9611 34.3148C64.0696 34.3148 61.8791 33.6467 60.3896 32.3105C58.8781 30.9962 57.98 29.2876 57.6952 27.1847L62.4596 27.1847C63.0291 29.0247 64.5187 29.9447 66.9282 29.9447C68.2644 29.9447 69.2611 29.6928 69.9182 29.189C70.5754 28.7071 70.904 28.0718 70.904 27.2833C70.904 26.648 70.6302 26.188 70.0825 25.9032C69.513 25.6185 68.3958 25.3009 66.7311 24.9504Z" fill="white"/>
<path d="M120.06 15.2949C122.097 15.2949 123.696 15.9307 124.857 17.2011C126.018 18.4716 126.599 20.2133 126.599 22.4257V33.7617H121.9V23.4443C121.9 22.2176 121.638 21.2969 121.112 20.6835C120.586 20.0703 119.721 19.7637 118.516 19.7636C115.8 19.7636 114.441 21.2646 114.441 24.2656V33.7617H109.743V15.6894H114.441V18.1542C115.799 16.2485 117.672 15.2949 120.06 15.2949Z" fill="white"/>
<path d="M133.933 26.3448C133.933 27.5714 134.185 28.4912 134.688 29.1045C135.214 29.7178 136.068 30.0244 137.251 30.0245C138.543 30.0245 139.529 29.6414 140.208 28.875C140.909 28.1084 141.26 26.991 141.26 25.5235V16.0274H145.959L145.958 34.0987V34.4336C145.958 36.9272 145.201 38.9393 143.672 40.4483C142.142 41.9774 140.1 42.7344 137.567 42.7344C135.383 42.7344 133.475 42.1828 131.852 41.0733L131.851 41.0723C130.235 39.954 129.276 38.3268 128.968 36.21L128.936 35.9971H133.76L133.796 36.1368C134.007 36.9435 134.413 37.5353 135.008 37.9288C135.606 38.3247 136.415 38.5313 137.447 38.5313C138.754 38.5312 139.7 38.193 140.322 37.5479C140.945 36.9015 141.261 35.9152 141.261 34.5547V34.0987H141.26V31.6016C139.88 33.5292 138.018 34.4932 135.674 34.4932C133.681 34.4931 132.103 33.8583 130.942 32.5879C129.803 31.2956 129.234 29.5538 129.234 27.3633V16.0274H133.933V26.3448Z" fill="white"/>
<rect x="0.521729" y="0.350649" width="44.6753" height="44.6753" rx="11.082" fill="#1064E5"/>
<path d="M22.8329 5.5427C25.4175 5.54274 27.7501 5.98104 29.831 6.85715L29.0097 10.7009C27.2573 9.89049 25.2418 9.48606 22.9638 9.48606C19.0867 9.4861 15.9436 10.6579 13.5341 13.0017C11.1465 15.3455 9.95207 18.5656 9.95207 22.6618C9.95214 26.736 11.1794 29.9563 13.6327 32.322C16.1079 34.7094 19.3387 35.903 23.3251 35.903C25.0775 35.903 26.6772 35.651 28.123 35.1472C29.5905 34.6653 30.8942 33.9204 32.0331 32.9128C33.1939 31.9271 34.0923 30.6018 34.7275 28.9372C35.0619 28.09 35.3103 27.1745 35.4745 26.1911C35.6741 24.3057 35.7975 22.4015 35.4706 20.9236C35.2949 20.1292 35.0278 19.6587 34.7489 19.3904C34.5117 19.1622 34.0942 18.9106 33.2089 18.8933C31.6368 18.8626 29.8837 19.8598 28.0966 21.7302C26.3646 23.543 24.9061 25.8477 24.0116 27.5827C23.6674 28.2506 23.4282 28.8017 23.4228 28.8142L23.33 28.7204V28.7214L16.205 21.5525L19.2206 18.5368L22.5556 21.7995C23.2802 20.7716 24.1042 19.7347 25.0126 18.7839C27.0634 16.6376 29.9036 14.5635 33.2919 14.6296C35.0678 14.6643 36.572 15.2262 37.706 16.3171C38.7982 17.3681 39.3517 18.723 39.6347 20.0017C39.8576 21.0094 39.9358 22.092 39.9355 23.154H39.9511V23.7126C39.9511 24.9844 39.8469 26.1883 39.6405 27.3239C39.6382 27.3448 39.6361 27.3658 39.6337 27.3864L39.6288 27.3855C39.0213 30.6623 37.5526 33.37 35.2196 35.5085C32.0653 38.4 28.0675 39.8464 23.2265 39.8464C18.1009 39.8463 13.895 38.2466 10.6093 35.0486C7.34561 31.8724 5.71379 27.7324 5.71379 22.6286C5.71379 17.5467 7.30221 13.4285 10.4784 10.2741C13.6765 7.11994 17.7949 5.5427 22.8329 5.5427Z" fill="white"/>
</svg>
